<mxfile host="app.diagrams.net" modified="2021-08-09T07:48:54.290Z" agent="5.0 (Windows NT 10.0; Win64; x64) AppleWebKit/537.36 (KHTML, like Gecko) Chrome/92.0.4515.131 Safari/537.36" etag="l5jslskTgtVVWx01MY-n" version="14.9.4" type="github">
  <diagram id="_mLg6bT0ZwUjy4SVquRM" name="Page-1">
    <mxGraphModel dx="731" dy="402" grid="1" gridSize="10" guides="1" tooltips="1" connect="1" arrows="1" fold="1" page="1" pageScale="1" pageWidth="827" pageHeight="1169" math="0" shadow="0">
      <root>
        <mxCell id="0" />
        <mxCell id="1" parent="0" />
        <mxCell id="HkwPKBNcVBXGnea5VhHB-9" style="edgeStyle=orthogonalEdgeStyle;rounded=0;orthogonalLoop=1;jettySize=auto;html=1;exitX=1;exitY=0.5;exitDx=0;exitDy=0;entryX=0;entryY=0.5;entryDx=0;entryDy=0;" edge="1" parent="1" source="HkwPKBNcVBXGnea5VhHB-7" target="HkwPKBNcVBXGnea5VhHB-8">
          <mxGeometry relative="1" as="geometry" />
        </mxCell>
        <mxCell id="HkwPKBNcVBXGnea5VhHB-7" value="开始" style="rounded=1;whiteSpace=wrap;html=1;strokeColor=#000000;" vertex="1" parent="1">
          <mxGeometry x="60" y="149" width="80" height="30" as="geometry" />
        </mxCell>
        <mxCell id="HkwPKBNcVBXGnea5VhHB-13" style="edgeStyle=orthogonalEdgeStyle;rounded=0;orthogonalLoop=1;jettySize=auto;html=1;exitX=1;exitY=0.5;exitDx=0;exitDy=0;entryX=0.5;entryY=0;entryDx=0;entryDy=0;" edge="1" parent="1" source="HkwPKBNcVBXGnea5VhHB-8" target="HkwPKBNcVBXGnea5VhHB-11">
          <mxGeometry relative="1" as="geometry">
            <Array as="points">
              <mxPoint x="280" y="165" />
              <mxPoint x="280" y="70" />
              <mxPoint x="345" y="70" />
            </Array>
          </mxGeometry>
        </mxCell>
        <mxCell id="HkwPKBNcVBXGnea5VhHB-8" value="数据划分" style="rounded=0;whiteSpace=wrap;html=1;strokeColor=#000000;" vertex="1" parent="1">
          <mxGeometry x="170" y="147.5" width="100" height="32.5" as="geometry" />
        </mxCell>
        <mxCell id="HkwPKBNcVBXGnea5VhHB-15" style="edgeStyle=orthogonalEdgeStyle;rounded=0;orthogonalLoop=1;jettySize=auto;html=1;exitX=0.5;exitY=1;exitDx=0;exitDy=0;" edge="1" parent="1" source="HkwPKBNcVBXGnea5VhHB-10" target="HkwPKBNcVBXGnea5VhHB-12">
          <mxGeometry relative="1" as="geometry" />
        </mxCell>
        <mxCell id="HkwPKBNcVBXGnea5VhHB-10" value="&lt;span style=&quot;color: rgb(0 , 0 , 0) ; font-family: &amp;#34;helvetica&amp;#34; ; font-size: 12px ; font-style: normal ; font-weight: 400 ; letter-spacing: normal ; text-align: center ; text-indent: 0px ; text-transform: none ; word-spacing: 0px ; background-color: rgb(248 , 249 , 250) ; display: inline ; float: none&quot;&gt;更新全局变量z&lt;/span&gt;" style="rounded=0;whiteSpace=wrap;html=1;strokeColor=#000000;" vertex="1" parent="1">
          <mxGeometry x="300" y="147.5" width="90" height="35" as="geometry" />
        </mxCell>
        <mxCell id="HkwPKBNcVBXGnea5VhHB-14" style="edgeStyle=orthogonalEdgeStyle;rounded=0;orthogonalLoop=1;jettySize=auto;html=1;exitX=0.5;exitY=1;exitDx=0;exitDy=0;entryX=0.5;entryY=0;entryDx=0;entryDy=0;" edge="1" parent="1" source="HkwPKBNcVBXGnea5VhHB-11" target="HkwPKBNcVBXGnea5VhHB-10">
          <mxGeometry relative="1" as="geometry" />
        </mxCell>
        <mxCell id="HkwPKBNcVBXGnea5VhHB-11" value="更新局部变量x" style="rounded=0;whiteSpace=wrap;html=1;strokeColor=#000000;sketch=0;fillColor=#FFFFFF;" vertex="1" parent="1">
          <mxGeometry x="300" y="90" width="90" height="35" as="geometry" />
        </mxCell>
        <mxCell id="HkwPKBNcVBXGnea5VhHB-17" style="edgeStyle=orthogonalEdgeStyle;rounded=0;orthogonalLoop=1;jettySize=auto;html=1;exitX=0.5;exitY=1;exitDx=0;exitDy=0;" edge="1" parent="1" source="HkwPKBNcVBXGnea5VhHB-12" target="HkwPKBNcVBXGnea5VhHB-16">
          <mxGeometry relative="1" as="geometry">
            <Array as="points">
              <mxPoint x="345" y="260" />
              <mxPoint x="450" y="260" />
            </Array>
          </mxGeometry>
        </mxCell>
        <mxCell id="HkwPKBNcVBXGnea5VhHB-12" value="&lt;span&gt;更新对偶变量y&lt;/span&gt;" style="rounded=0;whiteSpace=wrap;html=1;strokeColor=#000000;" vertex="1" parent="1">
          <mxGeometry x="300" y="210" width="90" height="35" as="geometry" />
        </mxCell>
        <mxCell id="HkwPKBNcVBXGnea5VhHB-18" style="edgeStyle=orthogonalEdgeStyle;rounded=0;orthogonalLoop=1;jettySize=auto;html=1;exitX=0.5;exitY=0;exitDx=0;exitDy=0;entryX=1;entryY=0.5;entryDx=0;entryDy=0;" edge="1" parent="1" source="HkwPKBNcVBXGnea5VhHB-16" target="HkwPKBNcVBXGnea5VhHB-11">
          <mxGeometry relative="1" as="geometry">
            <Array as="points">
              <mxPoint x="450" y="108" />
            </Array>
          </mxGeometry>
        </mxCell>
        <mxCell id="HkwPKBNcVBXGnea5VhHB-19" value="否" style="edgeLabel;html=1;align=center;verticalAlign=middle;resizable=0;points=[];" vertex="1" connectable="0" parent="HkwPKBNcVBXGnea5VhHB-18">
          <mxGeometry x="-0.7589" relative="1" as="geometry">
            <mxPoint as="offset" />
          </mxGeometry>
        </mxCell>
        <mxCell id="HkwPKBNcVBXGnea5VhHB-22" style="edgeStyle=orthogonalEdgeStyle;rounded=0;orthogonalLoop=1;jettySize=auto;html=1;exitX=1;exitY=0.5;exitDx=0;exitDy=0;entryX=0;entryY=0.5;entryDx=0;entryDy=0;" edge="1" parent="1" source="HkwPKBNcVBXGnea5VhHB-16" target="HkwPKBNcVBXGnea5VhHB-20">
          <mxGeometry relative="1" as="geometry" />
        </mxCell>
        <mxCell id="HkwPKBNcVBXGnea5VhHB-16" value="是否停止" style="rhombus;whiteSpace=wrap;html=1;sketch=0;strokeColor=#000000;fillColor=#FFFFFF;" vertex="1" parent="1">
          <mxGeometry x="410" y="140" width="80" height="50" as="geometry" />
        </mxCell>
        <mxCell id="HkwPKBNcVBXGnea5VhHB-20" value="输出全局变量z" style="rounded=0;whiteSpace=wrap;html=1;strokeColor=#000000;" vertex="1" parent="1">
          <mxGeometry x="520" y="149" width="90" height="32.5" as="geometry" />
        </mxCell>
      </root>
    </mxGraphModel>
  </diagram>
</mxfile>
